{
	"asset":{
		"generator":"Khronos glTF Blender I/O v4.1.62",
		"version":"2.0"
	},
	"extensionsUsed":[
		"KHR_materials_emissive_strength",
		"KHR_materials_transmission",
		"KHR_materials_ior"
	],
	"scene":0,
	"scenes":[
		{
			"name":"Scene",
			"nodes":[
				0,
				1,
				2
			]
		}
	],
	"nodes":[
		{
			"mesh":0,
			"name":"cornell.001",
			"rotation":[
				0.70710688829422,
				0,
				0,
				0.7071066498756409
			]
		},
		{
			"camera":0,
			"name":"Camera.001",
			"translation":[
				-0.10000000149011612,
				1,
				6.499999523162842
			]
		},
		{
			"mesh":1,
			"name":"Sphere",
			"scale":[
				0.20000000298023224,
				0.20000000298023224,
				0.20000000298023224
			],
			"translation":[
				0.3562004268169403,
				0.800000011920929,
				0.47223222255706787
			]
		}
	],
	"cameras":[
		{
			"name":"Camera.001",
			"perspective":{
				"aspectRatio":1.7777777777777777,
				"yfov":0.4038851857185364,
				"zfar":100,
				"znear":0.10000000149011612
			},
			"type":"perspective"
		}
	],
	"materials":[
		{
			"doubleSided":true,
			"name":"shortBox.001",
			"pbrMetallicRoughness":{
				"roughnessFactor":0
			}
		},
		{
			"doubleSided":true,
			"name":"leftWall.001",
			"pbrMetallicRoughness":{
				"baseColorFactor":[
					0.6299999952316284,
					0.06499999761581421,
					0.05000000074505806,
					1
				],
				"metallicFactor":0,
				"roughnessFactor":0.5
			}
		},
		{
			"doubleSided":true,
			"emissiveFactor":[
				1,
				1,
				1
			],
			"extensions":{
				"KHR_materials_emissive_strength":{
					"emissiveStrength":100
				}
			},
			"name":"light.001",
			"pbrMetallicRoughness":{
				"baseColorFactor":[
					0.7799999713897705,
					0.7799999713897705,
					0.7799999713897705,
					1
				],
				"metallicFactor":0,
				"roughnessFactor":0.9009850025177002
			}
		},
		{
			"doubleSided":true,
			"name":"tallBox.001",
			"pbrMetallicRoughness":{
				"baseColorFactor":[
					0.7273006439208984,
					0.31970441341400146,
					0.5703586935997009,
					1
				],
				"metallicFactor":0
			}
		},
		{
			"doubleSided":true,
			"name":"floor.001",
			"pbrMetallicRoughness":{
				"baseColorFactor":[
					0.7250000238418579,
					0.7099999785423279,
					0.6800000071525574,
					1
				],
				"metallicFactor":0,
				"roughnessFactor":0.8418859839439392
			}
		},
		{
			"doubleSided":true,
			"name":"backWall.001",
			"pbrMetallicRoughness":{
				"baseColorFactor":[
					0.08999279141426086,
					0.0907508134841919,
					0.7251853346824646,
					1
				],
				"metallicFactor":0,
				"roughnessFactor":0.9009850025177002
			}
		},
		{
			"doubleSided":true,
			"name":"ceiling.001",
			"pbrMetallicRoughness":{
				"baseColorFactor":[
					0.7250000238418579,
					0.7099999785423279,
					0.6800000071525574,
					1
				],
				"metallicFactor":0,
				"roughnessFactor":0.9009850025177002
			}
		},
		{
			"doubleSided":true,
			"name":"rightWall.001",
			"pbrMetallicRoughness":{
				"baseColorFactor":[
					0.14000000059604645,
					0.44999998807907104,
					0.09099999815225601,
					1
				],
				"metallicFactor":0,
				"roughnessFactor":0.5
			}
		},
		{
			"doubleSided":true,
			"extensions":{
				"KHR_materials_transmission":{
					"transmissionFactor":1
				},
				"KHR_materials_ior":{
					"ior":1.4500000476837158
				}
			},
			"name":"Material.001",
			"pbrMetallicRoughness":{
				"baseColorFactor":[
					0.8000000715255737,
					0,
					0.004255097359418869,
					1
				],
				"metallicFactor":0,
				"roughnessFactor":0
			}
		}
	],
	"meshes":[
		{
			"name":"cornell.001",
			"primitives":[
				{
					"attributes":{
						"POSITION":0,
						"NORMAL":1
					},
					"indices":2,
					"material":0
				},
				{
					"attributes":{
						"POSITION":3,
						"NORMAL":4
					},
					"indices":5,
					"material":1
				},
				{
					"attributes":{
						"POSITION":6,
						"NORMAL":7
					},
					"indices":5,
					"material":2
				},
				{
					"attributes":{
						"POSITION":8,
						"NORMAL":9
					},
					"indices":2,
					"material":3
				},
				{
					"attributes":{
						"POSITION":10,
						"NORMAL":11
					},
					"indices":5,
					"material":4
				},
				{
					"attributes":{
						"POSITION":12,
						"NORMAL":13
					},
					"indices":5,
					"material":5
				},
				{
					"attributes":{
						"POSITION":14,
						"NORMAL":15
					},
					"indices":5,
					"material":6
				},
				{
					"attributes":{
						"POSITION":16,
						"NORMAL":17
					},
					"indices":5,
					"material":7
				}
			]
		},
		{
			"name":"Sphere",
			"primitives":[
				{
					"attributes":{
						"POSITION":18,
						"NORMAL":19,
						"TEXCOORD_0":20
					},
					"indices":21,
					"material":8
				}
			]
		}
	],
	"accessors":[
		{
			"bufferView":0,
			"componentType":5126,
			"count":20,
			"max":[
				0.699999988079071,
				0.75,
				0
			],
			"min":[
				-0.05000000074505806,
				0,
				-0.6000000238418579
			],
			"type":"VEC3"
		},
		{
			"bufferView":1,
			"componentType":5126,
			"count":20,
			"type":"VEC3"
		},
		{
			"bufferView":2,
			"componentType":5123,
			"count":30,
			"type":"SCALAR"
		},
		{
			"bufferView":3,
			"componentType":5126,
			"count":4,
			"max":[
				-0.9900000095367432,
				0.9900000095367432,
				0
			],
			"min":[
				-1.0199999809265137,
				-1.0399999618530273,
				-1.9900000095367432
			],
			"type":"VEC3"
		},
		{
			"bufferView":4,
			"componentType":5126,
			"count":4,
			"type":"VEC3"
		},
		{
			"bufferView":5,
			"componentType":5123,
			"count":6,
			"type":"SCALAR"
		},
		{
			"bufferView":6,
			"componentType":5126,
			"count":4,
			"max":[
				0.23000000417232513,
				0.1599999964237213,
				-1.9800000190734863
			],
			"min":[
				-0.23999999463558197,
				-0.2199999988079071,
				-1.9800000190734863
			],
			"type":"VEC3"
		},
		{
			"bufferView":7,
			"componentType":5126,
			"count":4,
			"type":"VEC3"
		},
		{
			"bufferView":8,
			"componentType":5126,
			"count":20,
			"max":[
				0.03999999910593033,
				0.09000000357627869,
				0
			],
			"min":[
				-0.7099999785423279,
				-0.6700000166893005,
				-1.2000000476837158
			],
			"type":"VEC3"
		},
		{
			"bufferView":9,
			"componentType":5126,
			"count":20,
			"type":"VEC3"
		},
		{
			"bufferView":10,
			"componentType":5126,
			"count":4,
			"max":[
				1,
				0.9900000095367432,
				0
			],
			"min":[
				-1.0099999904632568,
				-1.0399999618530273,
				0
			],
			"type":"VEC3"
		},
		{
			"bufferView":11,
			"componentType":5126,
			"count":4,
			"type":"VEC3"
		},
		{
			"bufferView":12,
			"componentType":5126,
			"count":4,
			"max":[
				1,
				-1.0399999618530273,
				0
			],
			"min":[
				-1.0199999809265137,
				-1.0399999618530273,
				-1.9900000095367432
			],
			"type":"VEC3"
		},
		{
			"bufferView":13,
			"componentType":5126,
			"count":4,
			"type":"VEC3"
		},
		{
			"bufferView":14,
			"componentType":5126,
			"count":4,
			"max":[
				1,
				0.9900000095367432,
				-1.9900000095367432
			],
			"min":[
				-1.0199999809265137,
				-1.0399999618530273,
				-1.9900000095367432
			],
			"type":"VEC3"
		},
		{
			"bufferView":15,
			"componentType":5126,
			"count":4,
			"type":"VEC3"
		},
		{
			"bufferView":16,
			"componentType":5126,
			"count":4,
			"max":[
				1,
				0.9900000095367432,
				0
			],
			"min":[
				1,
				-1.0399999618530273,
				-1.9900000095367432
			],
			"type":"VEC3"
		},
		{
			"bufferView":17,
			"componentType":5126,
			"count":4,
			"type":"VEC3"
		},
		{
			"bufferView":18,
			"componentType":5126,
			"count":4223,
			"max":[
				0.9999998807907104,
				1,
				0.9999997615814209
			],
			"min":[
				-0.9999997019767761,
				-1,
				-1
			],
			"type":"VEC3"
		},
		{
			"bufferView":19,
			"componentType":5126,
			"count":4223,
			"type":"VEC3"
		},
		{
			"bufferView":20,
			"componentType":5126,
			"count":4223,
			"type":"VEC2"
		},
		{
			"bufferView":21,
			"componentType":5123,
			"count":24192,
			"type":"SCALAR"
		}
	],
	"bufferViews":[
		{
			"buffer":0,
			"byteLength":240,
			"byteOffset":0,
			"target":34962
		},
		{
			"buffer":0,
			"byteLength":240,
			"byteOffset":240,
			"target":34962
		},
		{
			"buffer":0,
			"byteLength":60,
			"byteOffset":480,
			"target":34963
		},
		{
			"buffer":0,
			"byteLength":48,
			"byteOffset":540,
			"target":34962
		},
		{
			"buffer":0,
			"byteLength":48,
			"byteOffset":588,
			"target":34962
		},
		{
			"buffer":0,
			"byteLength":12,
			"byteOffset":636,
			"target":34963
		},
		{
			"buffer":0,
			"byteLength":48,
			"byteOffset":648,
			"target":34962
		},
		{
			"buffer":0,
			"byteLength":48,
			"byteOffset":696,
			"target":34962
		},
		{
			"buffer":0,
			"byteLength":240,
			"byteOffset":744,
			"target":34962
		},
		{
			"buffer":0,
			"byteLength":240,
			"byteOffset":984,
			"target":34962
		},
		{
			"buffer":0,
			"byteLength":48,
			"byteOffset":1224,
			"target":34962
		},
		{
			"buffer":0,
			"byteLength":48,
			"byteOffset":1272,
			"target":34962
		},
		{
			"buffer":0,
			"byteLength":48,
			"byteOffset":1320,
			"target":34962
		},
		{
			"buffer":0,
			"byteLength":48,
			"byteOffset":1368,
			"target":34962
		},
		{
			"buffer":0,
			"byteLength":48,
			"byteOffset":1416,
			"target":34962
		},
		{
			"buffer":0,
			"byteLength":48,
			"byteOffset":1464,
			"target":34962
		},
		{
			"buffer":0,
			"byteLength":48,
			"byteOffset":1512,
			"target":34962
		},
		{
			"buffer":0,
			"byteLength":48,
			"byteOffset":1560,
			"target":34962
		},
		{
			"buffer":0,
			"byteLength":50676,
			"byteOffset":1608,
			"target":34962
		},
		{
			"buffer":0,
			"byteLength":50676,
			"byteOffset":52284,
			"target":34962
		},
		{
			"buffer":0,
			"byteLength":33784,
			"byteOffset":102960,
			"target":34962
		},
		{
			"buffer":0,
			"byteLength":48384,
			"byteOffset":136744,
			"target":34963
		}
	],
	"buffers":[
		{
			"byteLength":185128,
			"uri":"cornell_pbr.bin"
		}
	]
}
