{
	"asset":{
		"generator":"Khronos glTF Blender I/O v4.1.62",
		"version":"2.0"
	},
	"extensionsUsed":[
		"KHR_materials_transmission",
		"KHR_materials_ior",
		"KHR_materials_specular",
		"KHR_materials_emissive_strength"
	],
	"scene":0,
	"scenes":[
		{
			"name":"Scene",
			"nodes":[
				0,
				1,
				2,
				3,
				4,
				5,
				6
			]
		}
	],
	"nodes":[
		{
			"mesh":0,
			"name":"Sphere"
		},
		{
			"mesh":1,
			"name":"Sphere.001",
			"translation":[
				0.014221577905118465,
				0,
				0
			]
		},
		{
			"mesh":2,
			"name":"Plane",
			"rotation":[
				0,
				0,
				-0.3826834559440613,
				0.9238795638084412
			],
			"translation":[
				2.1114394664764404,
				1.827852487564087,
				0
			]
		},
		{
			"camera":0,
			"name":"Camera",
			"rotation":[
				-0.3826834261417389,
				0,
				0,
				0.9238795638084412
			],
			"translation":[
				0,
				5.029460906982422,
				5.029465198516846
			]
		},
		{
			"mesh":3,
			"name":"Plane.001",
			"scale":[
				510.8236389160156,
				1,
				510.8236389160156
			],
			"translation":[
				0,
				-0.7477800250053406,
				0
			]
		},
		{
			"mesh":4,
			"name":"Cube",
			"scale":[
				0.20000000298023224,
				0.20000000298023224,
				0.20000000298023224
			],
			"translation":[
				-0.9598821401596069,
				0.033187270164489746,
				0
			]
		},
		{
			"mesh":5,
			"name":"Torus.001",
			"rotation":[
				-0.9547613859176636,
				0,
				0,
				0.29737329483032227
			]
		}
	],
	"cameras":[
		{
			"name":"Camera.002",
			"perspective":{
				"aspectRatio":1.7777777777777777,
				"yfov":0.39959651231765747,
				"zfar":1000,
				"znear":0.10000000149011612
			},
			"type":"perspective"
		}
	],
	"materials":[
		{
			"doubleSided":true,
			"extensions":{
				"KHR_materials_transmission":{
					"transmissionFactor":1
				},
				"KHR_materials_ior":{
					"ior":1.399999976158142
				}
			},
			"name":"Material.004",
			"pbrMetallicRoughness":{
				"metallicFactor":0,
				"roughnessFactor":0
			}
		},
		{
			"doubleSided":true,
			"extensions":{
				"KHR_materials_transmission":{
					"transmissionFactor":1
				},
				"KHR_materials_specular":{
					"specularColorFactor":[
						2.0,
						2.0,
						2.0
					]
				},
				"KHR_materials_ior":{
					"ior":1
				}
			},
			"name":"Material.005",
			"pbrMetallicRoughness":{
				"baseColorFactor":[
					0,
					0.04319041967391968,
					0.8040210008621216,
					1
				],
				"metallicFactor":0,
				"roughnessFactor":0
			}
		},
		{
			"doubleSided":true,
			"emissiveFactor":[
				1,
				1,
				1
			],
			"extensions":{
				"KHR_materials_emissive_strength":{
					"emissiveStrength":25
				}
			},
			"name":"Material.006",
			"pbrMetallicRoughness":{
				"baseColorFactor":[
					0.800000011920929,
					0.800000011920929,
					0.800000011920929,
					1
				],
				"metallicFactor":0,
				"roughnessFactor":0.5
			}
		},
		{
			"doubleSided":true,
			"extensions":{
				"KHR_materials_transmission":{
					"transmissionFactor":1
				}
			},
			"name":"Material",
			"pbrMetallicRoughness":{
				"baseColorFactor":[
					1,
					0,
					0,
					1
				],
				"metallicFactor":0,
				"roughnessFactor":0
			}
		},
		{
			"doubleSided":true,
			"extensions":{
				"KHR_materials_transmission":{
					"transmissionFactor":1
				},
				"KHR_materials_ior":{
					"ior":2
				}
			},
			"name":"Material.001",
			"pbrMetallicRoughness":{
				"baseColorFactor":[
					0,
					0.38120442628860474,
					0.8007099628448486,
					1
				],
				"metallicFactor":0,
				"roughnessFactor":0.20000000298023224
			}
		}
	],
	"meshes":[
		{
			"name":"Sphere.002",
			"primitives":[
				{
					"attributes":{
						"POSITION":0,
						"NORMAL":1,
						"TEXCOORD_0":2
					},
					"indices":3,
					"material":0
				}
			]
		},
		{
			"name":"Sphere.003",
			"primitives":[
				{
					"attributes":{
						"POSITION":4,
						"NORMAL":5,
						"TEXCOORD_0":6
					},
					"indices":7,
					"material":1
				}
			]
		},
		{
			"name":"Plane.002",
			"primitives":[
				{
					"attributes":{
						"POSITION":8,
						"NORMAL":9,
						"TEXCOORD_0":10
					},
					"indices":11,
					"material":2
				}
			]
		},
		{
			"name":"Plane.003",
			"primitives":[
				{
					"attributes":{
						"POSITION":12,
						"NORMAL":13,
						"TEXCOORD_0":14
					},
					"indices":11
				}
			]
		},
		{
			"name":"Cube",
			"primitives":[
				{
					"attributes":{
						"POSITION":15,
						"NORMAL":16,
						"TEXCOORD_0":17
					},
					"indices":18,
					"material":3
				}
			]
		},
		{
			"name":"Torus.001",
			"primitives":[
				{
					"attributes":{
						"POSITION":19,
						"NORMAL":20,
						"TEXCOORD_0":21
					},
					"indices":22,
					"material":4
				}
			]
		}
	],
	"accessors":[
		{
			"bufferView":0,
			"componentType":5126,
			"count":559,
			"max":[
				0.9999997019767761,
				1,
				0.9999993443489075
			],
			"min":[
				-0.9999990463256836,
				-1,
				-1
			],
			"type":"VEC3"
		},
		{
			"bufferView":1,
			"componentType":5126,
			"count":559,
			"type":"VEC3"
		},
		{
			"bufferView":2,
			"componentType":5126,
			"count":559,
			"type":"VEC2"
		},
		{
			"bufferView":3,
			"componentType":5123,
			"count":2880,
			"type":"SCALAR"
		},
		{
			"bufferView":4,
			"componentType":5126,
			"count":559,
			"max":[
				0.34999987483024597,
				0.3499999940395355,
				0.3499997556209564
			],
			"min":[
				-0.34999966621398926,
				-0.3499999940395355,
				-0.3499999940395355
			],
			"type":"VEC3"
		},
		{
			"bufferView":5,
			"componentType":5126,
			"count":559,
			"type":"VEC3"
		},
		{
			"bufferView":6,
			"componentType":5126,
			"count":559,
			"type":"VEC2"
		},
		{
			"bufferView":7,
			"componentType":5123,
			"count":2880,
			"type":"SCALAR"
		},
		{
			"bufferView":8,
			"componentType":5126,
			"count":4,
			"max":[
				1,
				0,
				1
			],
			"min":[
				-1,
				0,
				-1
			],
			"type":"VEC3"
		},
		{
			"bufferView":9,
			"componentType":5126,
			"count":4,
			"type":"VEC3"
		},
		{
			"bufferView":10,
			"componentType":5126,
			"count":4,
			"type":"VEC2"
		},
		{
			"bufferView":11,
			"componentType":5123,
			"count":6,
			"type":"SCALAR"
		},
		{
			"bufferView":12,
			"componentType":5126,
			"count":4,
			"max":[
				1,
				0,
				1
			],
			"min":[
				-1,
				0,
				-1
			],
			"type":"VEC3"
		},
		{
			"bufferView":13,
			"componentType":5126,
			"count":4,
			"type":"VEC3"
		},
		{
			"bufferView":14,
			"componentType":5126,
			"count":4,
			"type":"VEC2"
		},
		{
			"bufferView":15,
			"componentType":5126,
			"count":24,
			"max":[
				1,
				1,
				1
			],
			"min":[
				-1,
				-1,
				-1
			],
			"type":"VEC3"
		},
		{
			"bufferView":16,
			"componentType":5126,
			"count":24,
			"type":"VEC3"
		},
		{
			"bufferView":17,
			"componentType":5126,
			"count":24,
			"type":"VEC2"
		},
		{
			"bufferView":18,
			"componentType":5123,
			"count":36,
			"type":"SCALAR"
		},
		{
			"bufferView":19,
			"componentType":5126,
			"count":637,
			"max":[
				0.6000000238418579,
				0.10000000149011612,
				0.6000000238418579
			],
			"min":[
				-0.6000000238418579,
				-0.10000000149011612,
				-0.6000000238418579
			],
			"type":"VEC3"
		},
		{
			"bufferView":20,
			"componentType":5126,
			"count":637,
			"type":"VEC3"
		},
		{
			"bufferView":21,
			"componentType":5126,
			"count":637,
			"type":"VEC2"
		},
		{
			"bufferView":22,
			"componentType":5123,
			"count":3456,
			"type":"SCALAR"
		}
	],
	"bufferViews":[
		{
			"buffer":0,
			"byteLength":6708,
			"byteOffset":0,
			"target":34962
		},
		{
			"buffer":0,
			"byteLength":6708,
			"byteOffset":6708,
			"target":34962
		},
		{
			"buffer":0,
			"byteLength":4472,
			"byteOffset":13416,
			"target":34962
		},
		{
			"buffer":0,
			"byteLength":5760,
			"byteOffset":17888,
			"target":34963
		},
		{
			"buffer":0,
			"byteLength":6708,
			"byteOffset":23648,
			"target":34962
		},
		{
			"buffer":0,
			"byteLength":6708,
			"byteOffset":30356,
			"target":34962
		},
		{
			"buffer":0,
			"byteLength":4472,
			"byteOffset":37064,
			"target":34962
		},
		{
			"buffer":0,
			"byteLength":5760,
			"byteOffset":41536,
			"target":34963
		},
		{
			"buffer":0,
			"byteLength":48,
			"byteOffset":47296,
			"target":34962
		},
		{
			"buffer":0,
			"byteLength":48,
			"byteOffset":47344,
			"target":34962
		},
		{
			"buffer":0,
			"byteLength":32,
			"byteOffset":47392,
			"target":34962
		},
		{
			"buffer":0,
			"byteLength":12,
			"byteOffset":47424,
			"target":34963
		},
		{
			"buffer":0,
			"byteLength":48,
			"byteOffset":47436,
			"target":34962
		},
		{
			"buffer":0,
			"byteLength":48,
			"byteOffset":47484,
			"target":34962
		},
		{
			"buffer":0,
			"byteLength":32,
			"byteOffset":47532,
			"target":34962
		},
		{
			"buffer":0,
			"byteLength":288,
			"byteOffset":47564,
			"target":34962
		},
		{
			"buffer":0,
			"byteLength":288,
			"byteOffset":47852,
			"target":34962
		},
		{
			"buffer":0,
			"byteLength":192,
			"byteOffset":48140,
			"target":34962
		},
		{
			"buffer":0,
			"byteLength":72,
			"byteOffset":48332,
			"target":34963
		},
		{
			"buffer":0,
			"byteLength":7644,
			"byteOffset":48404,
			"target":34962
		},
		{
			"buffer":0,
			"byteLength":7644,
			"byteOffset":56048,
			"target":34962
		},
		{
			"buffer":0,
			"byteLength":5096,
			"byteOffset":63692,
			"target":34962
		},
		{
			"buffer":0,
			"byteLength":6912,
			"byteOffset":68788,
			"target":34963
		}
	],
	"buffers":[
		{
			"byteLength":75700,
			"uri":"nested-dielectrics-complex.bin"
		}
	]
}
